<svg width="86" height="14" viewBox="0 0 86 14" fill="none" xmlns="http://www.w3.org/2000/svg">
<path d="M7.25332 11.295L7.0005 11.1465L6.74743 11.2946L3.35253 13.2816L3.35164 13.2822C3.22483 13.3567 3.09098 13.3406 2.9897 13.2691C2.88918 13.198 2.84375 13.0911 2.87248 12.9711L3.77227 9.2198L3.84429 8.91954L3.60808 8.72068L0.605847 6.19314L0.60567 6.19299C0.417515 6.03473 0.492283 5.70611 0.788644 5.68321L0.788644 5.68321L0.791214 5.683L4.74238 5.35712L5.03987 5.33259L5.15943 5.05908L6.70554 1.52211L6.70554 1.52211L6.70639 1.52014C6.75545 1.4066 6.86371 1.33899 7 1.33899C7.13629 1.33899 7.24455 1.4066 7.2936 1.52014L7.2943 1.52173L8.84041 5.06665L8.95985 5.34051L9.25762 5.36507L13.2088 5.69096L13.2114 5.69115C13.5077 5.71406 13.5825 6.04268 13.3943 6.20094L13.3942 6.20109L10.3919 8.72863L10.1557 8.92749L10.2277 9.22775L11.1275 12.9791C11.1562 13.0991 11.1108 13.206 11.0103 13.277C10.909 13.3486 10.7752 13.3647 10.6484 13.2901L10.6482 13.29L7.25332 11.295Z" fill="#F8B656" stroke="#F8B656"/>
<path d="M25.2533 11.295L25.0005 11.1465L24.7474 11.2946L21.3525 13.2816L21.3516 13.2822C21.2248 13.3567 21.091 13.3406 20.9897 13.2691C20.8892 13.198 20.8438 13.0911 20.8725 12.9711L21.7723 9.2198L21.8443 8.91954L21.6081 8.72068L18.6058 6.19314L18.6057 6.19299C18.4175 6.03473 18.4923 5.70611 18.7886 5.68321L18.7886 5.68321L18.7912 5.683L22.7424 5.35712L23.0399 5.33259L23.1594 5.05908L24.7055 1.52211L24.7055 1.52211L24.7064 1.52014C24.7554 1.4066 24.8637 1.33899 25 1.33899C25.1363 1.33899 25.2446 1.4066 25.2936 1.52014L25.2943 1.52173L26.8404 5.06665L26.9599 5.34051L27.2576 5.36507L31.2088 5.69096L31.2114 5.69115C31.5077 5.71406 31.5825 6.04268 31.3943 6.20094L31.3942 6.20109L28.3919 8.72863L28.1557 8.92749L28.2277 9.22775L29.1275 12.9791C29.1562 13.0991 29.1108 13.206 29.0103 13.277C28.909 13.3486 28.7752 13.3647 28.6484 13.2901L28.6482 13.29L25.2533 11.295Z" fill="#F8B656" stroke="#F8B656"/>
<path d="M43.2533 11.295L43.0005 11.1465L42.7474 11.2946L39.3525 13.2816L39.3516 13.2822C39.2248 13.3567 39.091 13.3406 38.9897 13.2691C38.8892 13.198 38.8438 13.0911 38.8725 12.9711L39.7723 9.2198L39.8443 8.91954L39.6081 8.72068L36.6058 6.19314L36.6057 6.19299C36.4175 6.03473 36.4923 5.70611 36.7886 5.68321L36.7886 5.68321L36.7912 5.683L40.7424 5.35712L41.0399 5.33259L41.1594 5.05908L42.7055 1.52211L42.7055 1.52211L42.7064 1.52014C42.7554 1.4066 42.8637 1.33899 43 1.33899C43.1363 1.33899 43.2446 1.4066 43.2936 1.52014L43.2943 1.52173L44.8404 5.06665L44.9599 5.34051L45.2576 5.36507L49.2088 5.69096L49.2114 5.69115C49.5077 5.71406 49.5825 6.04268 49.3943 6.20094L49.3942 6.20109L46.3919 8.72863L46.1557 8.92749L46.2277 9.22775L47.1275 12.9791C47.1562 13.0991 47.1108 13.206 47.0103 13.277C46.909 13.3486 46.7752 13.3647 46.6484 13.2901L46.6482 13.29L43.2533 11.295Z" fill="#F8B656" stroke="#F8B656"/>
<path d="M61.2533 11.295L61.0005 11.1465L60.7474 11.2946L57.3525 13.2816L57.3516 13.2822C57.2248 13.3567 57.091 13.3406 56.9897 13.2691C56.8892 13.198 56.8438 13.0911 56.8725 12.9711L57.7723 9.2198L57.8443 8.91954L57.6081 8.72068L54.6058 6.19314L54.6057 6.19299C54.4175 6.03473 54.4923 5.70611 54.7886 5.68321L54.7886 5.68321L54.7912 5.683L58.7424 5.35712L59.0399 5.33259L59.1594 5.05908L60.7055 1.52211L60.7055 1.52211L60.7064 1.52014C60.7554 1.4066 60.8637 1.33899 61 1.33899C61.1363 1.33899 61.2446 1.4066 61.2936 1.52014L61.2943 1.52173L62.8404 5.06665L62.9599 5.34051L63.2576 5.36507L67.2088 5.69096L67.2114 5.69115C67.5077 5.71406 67.5825 6.04268 67.3943 6.20094L67.3942 6.20109L64.3919 8.72863L64.1557 8.92749L64.2277 9.22775L65.1275 12.9791C65.1562 13.0991 65.1108 13.206 65.0103 13.277C64.909 13.3486 64.7752 13.3647 64.6484 13.2901L64.6482 13.29L61.2533 11.295Z" fill="#F8B656" stroke="#F8B656"/>
<path d="M79.2533 11.295L79.0005 11.1465L78.7474 11.2946L75.3525 13.2816L75.3516 13.2822C75.2248 13.3567 75.091 13.3406 74.9897 13.2691C74.8892 13.198 74.8438 13.0911 74.8725 12.9711L75.7723 9.2198L75.8443 8.91954L75.6081 8.72068L72.6058 6.19314L72.6057 6.19299C72.4175 6.03473 72.4923 5.70611 72.7886 5.68321L72.7886 5.68321L72.7912 5.683L76.7424 5.35712L77.0399 5.33259L77.1594 5.05908L78.7055 1.52211L78.7055 1.52211L78.7064 1.52014C78.7554 1.4066 78.8637 1.33899 79 1.33899C79.1363 1.33899 79.2446 1.4066 79.2936 1.52014L79.2943 1.52173L80.8404 5.06665L80.9599 5.34051L81.2576 5.36507L85.2088 5.69096L85.2114 5.69115C85.5077 5.71406 85.5825 6.04268 85.3943 6.20094L85.3942 6.20109L82.3919 8.72863L82.1557 8.92749L82.2277 9.22775L83.1275 12.9791C83.1562 13.0991 83.1108 13.206 83.0103 13.277C82.909 13.3486 82.7752 13.3647 82.6484 13.2901L82.6482 13.29L79.2533 11.295Z" fill="#F8B656" stroke="#F8B656"/>
</svg>
