<svg width="72" height="18" viewBox="0 0 72 18" fill="none" xmlns="http://www.w3.org/2000/svg">
<rect width="72" height="18" fill="#656565"/>
<g id="Slippers">
<rect width="390" height="1096" transform="translate(-159 -417)" fill="#F0F0F0"/>
<g id="Frame 2">
<g id="trust icons">
<g id="Group 147">
<path id="Vector" d="M18.9233 6.26379L26.2072 6.26379L26.2072 7.61978L23.3392 7.61978L23.3392 15.2637L21.7672 15.2637L21.7672 7.61978L18.9113 7.61978L18.9233 6.26379ZM25.8952 8.74776L27.2392 8.74776L27.2392 10.0077L27.2632 10.0077C27.3112 9.82775 27.3952 9.65975 27.5152 9.49175C27.6352 9.32376 27.7792 9.16776 27.9592 9.03576C28.1272 8.89176 28.3192 8.78376 28.5351 8.69976C28.7391 8.61576 28.9551 8.56776 29.1711 8.56776C29.3391 8.56776 29.4591 8.57976 29.5191 8.57976C29.5791 8.59176 29.6511 8.60377 29.7111 8.60377L29.7111 9.98375C29.6151 9.95975 29.5071 9.94775 29.3991 9.93575C29.2911 9.92375 29.1951 9.91175 29.0871 9.91175C28.8471 9.91175 28.6192 9.95975 28.4032 10.0557C28.1872 10.1517 28.0072 10.2957 27.8392 10.4757C27.6832 10.6677 27.5512 10.8957 27.4552 11.1717C27.3592 11.4477 27.3112 11.7717 27.3112 12.1317L27.3112 15.2277L25.8712 15.2277L25.8952 8.74776ZM36.3111 15.2637L34.8951 15.2637L34.8951 14.3517L34.8711 14.3517C34.6911 14.6877 34.4271 14.9397 34.0791 15.1437C33.7311 15.3477 33.3711 15.4437 33.0111 15.4437C32.1591 15.4437 31.5351 15.2397 31.1511 14.8077C30.7671 14.3877 30.5751 13.7397 30.5751 12.8877L30.5751 8.74776L32.0151 8.74776L32.0151 12.7437C32.0151 13.3197 32.1231 13.7277 32.3511 13.9557C32.5671 14.1957 32.8791 14.3157 33.2751 14.3157C33.5751 14.3157 33.8271 14.2677 34.0311 14.1717C34.2351 14.0757 34.4031 13.9557 34.5231 13.7997C34.6551 13.6437 34.7391 13.4517 34.7991 13.2357C34.8591 13.0197 34.8831 12.7797 34.8831 12.5277L34.8831 8.74776L36.3231 8.74776L36.3231 15.2637L36.3111 15.2637ZM38.759 13.1757C38.807 13.5957 38.963 13.8837 39.239 14.0637C39.515 14.2317 39.851 14.3157 40.235 14.3157C40.367 14.3157 40.523 14.3037 40.691 14.2797C40.859 14.2557 41.027 14.2197 41.171 14.1597C41.327 14.0997 41.447 14.0157 41.543 13.8957C41.639 13.7757 41.687 13.6317 41.675 13.4517C41.663 13.2717 41.603 13.1157 41.471 12.9957C41.339 12.8757 41.183 12.7917 40.991 12.7077C40.799 12.6357 40.571 12.5757 40.319 12.5277C40.067 12.4797 39.815 12.4197 39.551 12.3597C39.287 12.2997 39.023 12.2277 38.771 12.1437C38.519 12.0597 38.303 11.9517 38.099 11.7957C37.907 11.6517 37.739 11.4717 37.631 11.2437C37.511 11.0157 37.451 10.7517 37.451 10.4157C37.451 10.0557 37.535 9.76775 37.715 9.52775C37.883 9.28776 38.111 9.09576 38.375 8.95176C38.639 8.80776 38.939 8.69976 39.263 8.63976C39.587 8.57977 39.899 8.55576 40.187 8.55576C40.523 8.55576 40.847 8.59177 41.147 8.66377C41.447 8.73577 41.735 8.84376 41.975 9.01176C42.227 9.16776 42.431 9.38375 42.587 9.63575C42.755 9.88775 42.851 10.1997 42.899 10.5597L41.399 10.5597C41.327 10.2117 41.171 9.98375 40.931 9.86375C40.679 9.74375 40.403 9.68375 40.079 9.68375C39.983 9.68375 39.851 9.69575 39.719 9.70775C39.575 9.73175 39.455 9.75575 39.323 9.80375C39.203 9.85175 39.095 9.92375 39.011 10.0077C38.927 10.0917 38.879 10.2117 38.879 10.3557C38.879 10.5357 38.939 10.6677 39.059 10.7757C39.179 10.8837 39.335 10.9677 39.539 11.0517C39.731 11.1237 39.959 11.1837 40.211 11.2317C40.463 11.2797 40.727 11.3397 40.991 11.3997C41.255 11.4597 41.507 11.5317 41.759 11.6157C42.011 11.6997 42.239 11.8077 42.431 11.9637C42.623 12.1077 42.791 12.2877 42.911 12.5037C43.031 12.7197 43.091 12.9957 43.091 13.3077C43.091 13.6917 43.007 14.0157 42.827 14.2917C42.647 14.5557 42.419 14.7837 42.143 14.9517C41.867 15.1197 41.543 15.2397 41.207 15.3237C40.859 15.3957 40.523 15.4437 40.187 15.4437C39.779 15.4437 39.395 15.3957 39.047 15.2997C38.699 15.2037 38.387 15.0597 38.135 14.8797C37.883 14.6877 37.679 14.4597 37.535 14.1717C37.391 13.8957 37.307 13.5597 37.295 13.1637L38.747 13.1637L38.747 13.1757L38.759 13.1757ZM43.499 8.74776L44.591 8.74776L44.591 6.77979L46.0309 6.77979L46.0309 8.73576L47.3269 8.73576L47.3269 9.80375L46.0309 9.80375L46.0309 13.2837C46.0309 13.4397 46.0429 13.5597 46.0549 13.6797C46.0669 13.7877 46.1029 13.8837 46.1389 13.9557C46.1869 14.0277 46.2589 14.0877 46.3429 14.1237C46.4389 14.1597 46.5589 14.1837 46.7269 14.1837C46.8229 14.1837 46.9309 14.1837 47.0269 14.1717C47.1229 14.1597 47.2309 14.1477 47.3269 14.1237L47.3269 15.2397C47.1709 15.2637 47.0149 15.2757 46.8589 15.2877C46.7029 15.3117 46.5589 15.3117 46.3909 15.3117C46.0069 15.3117 45.7069 15.2757 45.4789 15.2037C45.2509 15.1317 45.0709 15.0237 44.9389 14.8917C44.807 14.7477 44.723 14.5797 44.675 14.3757C44.627 14.1717 44.603 13.9197 44.591 13.6557L44.591 9.81575L43.499 9.81575L43.499 8.72377L43.499 8.74776ZM48.3349 8.74776L49.6909 8.74776L49.6909 9.63575L49.7149 9.63575C49.9189 9.25176 50.1949 8.98776 50.5549 8.81976C50.9149 8.65177 51.2989 8.56777 51.7309 8.56777C52.2469 8.56777 52.6909 8.65177 53.0748 8.84376C53.4588 9.02376 53.7708 9.26376 54.0228 9.58775C54.2748 9.89975 54.4668 10.2717 54.5868 10.6917C54.7068 11.1117 54.7788 11.5677 54.7788 12.0357C54.7788 12.4797 54.7188 12.8997 54.6108 13.3077C54.4908 13.7157 54.3228 14.0877 54.0948 14.3997C53.8668 14.7117 53.5788 14.9637 53.2188 15.1557C52.8589 15.3477 52.4509 15.4437 51.9709 15.4437C51.7669 15.4437 51.5509 15.4197 51.3469 15.3837C51.1429 15.3477 50.9389 15.2877 50.7469 15.2037C50.5549 15.1197 50.3749 15.0117 50.2189 14.8797C50.0509 14.7477 49.9189 14.5917 49.8109 14.4237L49.7869 14.4237L49.7869 17.6757L48.3469 17.6757L48.3469 8.74776L48.3349 8.74776ZM53.3628 12.0117C53.3628 11.7237 53.3269 11.4357 53.2429 11.1597C53.1709 10.8837 53.0508 10.6437 52.8949 10.4277C52.7389 10.2117 52.5469 10.0437 52.3309 9.91175C52.1029 9.77975 51.8389 9.71975 51.5509 9.71975C50.9509 9.71975 50.4949 9.92375 50.1829 10.3437C49.8829 10.7637 49.7269 11.3277 49.7269 12.0237C49.7269 12.3597 49.7629 12.6597 49.8469 12.9357C49.9309 13.2117 50.0389 13.4517 50.2069 13.6557C50.3629 13.8597 50.5549 14.0157 50.7829 14.1357C51.0109 14.2557 51.2629 14.3157 51.5629 14.3157C51.8989 14.3157 52.1629 14.2437 52.3909 14.1117C52.6189 13.9797 52.7989 13.7997 52.9548 13.5957C53.0988 13.3797 53.2068 13.1397 53.2668 12.8637C53.3268 12.5757 53.3628 12.2997 53.3628 12.0117ZM55.8948 6.2638L57.3348 6.2638L57.3348 7.61978L55.8948 7.61978L55.8948 6.2638ZM55.8948 8.74776L57.3348 8.74776L57.3348 15.2637L55.8948 15.2637L55.8948 8.74776ZM58.6188 6.2638L60.0588 6.2638L60.0588 15.2637L58.6188 15.2637L58.6188 6.2638ZM64.4507 15.4437C63.9347 15.4437 63.4667 15.3597 63.0587 15.1797C62.6507 14.9997 62.3147 14.7717 62.0267 14.4717C61.7507 14.1717 61.5347 13.7997 61.3907 13.3797C61.2467 12.9597 61.1628 12.4917 61.1628 11.9997C61.1628 11.5077 61.2347 11.0517 61.3907 10.6317C61.5347 10.2117 61.7507 9.85175 62.0267 9.53976C62.3027 9.23976 62.6507 8.99976 63.0587 8.83177C63.4667 8.66377 63.9347 8.56777 64.4507 8.56777C64.9667 8.56777 65.4347 8.65177 65.8427 8.83177C66.2507 8.99976 66.5867 9.23976 66.8747 9.53976C67.1507 9.83975 67.3667 10.2117 67.5107 10.6317C67.6547 11.0517 67.7387 11.5077 67.7387 11.9997C67.7387 12.5037 67.6667 12.9597 67.5107 13.3797C67.3547 13.7997 67.1507 14.1597 66.8747 14.4717C66.5987 14.7717 66.2507 15.0117 65.8427 15.1797C65.4347 15.3477 64.9787 15.4437 64.4507 15.4437ZM64.4507 14.3037C64.7627 14.3037 65.0507 14.2317 65.2787 14.0997C65.5187 13.9677 65.6987 13.7877 65.8547 13.5717C66.0107 13.3557 66.1187 13.1037 66.1907 12.8397C66.2627 12.5637 66.2987 12.2877 66.2987 11.9997C66.2987 11.7237 66.2627 11.4477 66.1907 11.1717C66.1187 10.8957 66.0107 10.6557 65.8547 10.4397C65.6987 10.2237 65.5067 10.0558 65.2787 9.92375C65.0387 9.79175 64.7627 9.71975 64.4507 9.71975C64.1387 9.71975 63.8507 9.79175 63.6227 9.92375C63.3827 10.0558 63.2027 10.2357 63.0467 10.4397C62.8907 10.6557 62.7827 10.8957 62.7107 11.1717C62.6387 11.4477 62.6027 11.7237 62.6027 11.9997C62.6027 12.2877 62.6387 12.5637 62.7107 12.8397C62.7827 13.1157 62.8907 13.3557 63.0467 13.5717C63.2027 13.7877 63.3947 13.9677 63.6227 14.0997C63.8627 14.2437 64.1387 14.3037 64.4507 14.3037ZM68.1707 8.74777L69.2627 8.74777L69.2627 6.77979L70.7026 6.77979L70.7026 8.73576L71.9986 8.73577L71.9986 9.80375L70.7026 9.80375L70.7026 13.2837C70.7026 13.4397 70.7146 13.5597 70.7266 13.6797C70.7386 13.7877 70.7746 13.8837 70.8106 13.9557C70.8586 14.0277 70.9306 14.0877 71.0146 14.1237C71.1106 14.1597 71.2306 14.1837 71.3986 14.1837C71.4946 14.1837 71.6026 14.1837 71.6986 14.1717C71.7946 14.1597 71.9026 14.1477 71.9986 14.1237L71.9986 15.2397C71.8426 15.2637 71.6866 15.2757 71.5306 15.2877C71.3746 15.3117 71.2306 15.3117 71.0626 15.3117C70.6786 15.3117 70.3786 15.2757 70.1506 15.2037C69.9226 15.1317 69.7426 15.0237 69.6106 14.8917C69.4786 14.7477 69.3947 14.5797 69.3467 14.3757C69.2987 14.1717 69.2747 13.9197 69.2627 13.6557L69.2627 9.81575L68.1707 9.81575L68.1707 8.72377L68.1707 8.74777Z" fill="black"/>
<path id="Vector_2" d="M17.2438 6.26393L10.6559 6.26393L8.62789 7.54274e-07L6.58792 6.26392L-5.46561e-07 6.25192L5.32793 10.1279L3.28796 16.3918L8.61589 12.5158L13.9438 16.3918L11.9159 10.1279L17.2438 6.26393Z" fill="#00B67A"/>
<path id="Vector_3" d="M12.372 11.544L11.916 10.1281L8.62807 12.516L12.372 11.544Z" fill="#005128"/>
</g>
</g>
</g>
</g>
</svg>
